<svg xmlns="http://www.w3.org/2000/svg" viewBox="-0.00004062056541442871 -0.0007815361022949219 103.26179504394531 109.88115692138672"><path d="M50.87 37.29c2.85-.95 5-3 7.34-4.76C65.68 27.07 73 21.4 80.41 15.87 87 10.92 93.73 6 100.4 1.12c.75-.56 1.53-1.62 2.46-.85s0 1.76-.34 2.63c-4.43 12.23-9 24.39-13.14 36.74-1.29 3.89-3.1 7.61-4.06 11.62-.32 1.43-1.32 1.86-2.77 1.84-2.89-.06-5.79 0-8.67 0a2.15 2.15 0 0 0-2.44 1.74Q66.57 68.91 61.57 83q-3.84 10.74-7.89 21.38a28.24 28.24 0 0 0-.93 4.08c-.15.67-.37 1.44-1.27 1.42-.73 0-1-.68-1.18-1.25-.72-2-1.43-4-2.11-5.93-3.77-11-7.48-22-11.31-32.95-1.92-5.51-4.05-11-6.08-16.42 1.26-.56 1.7-2 2.78-2.72 4.24-3 8.51-6 12.64-9.22 1.62-1.27 3.7-2.06 4.65-4.1z" fill="#ff4100"></path><path d="M50.87 37.29c-.95 2-3 2.83-4.65 4.08-4.13 3.18-8.4 6.18-12.64 9.22-1.08.77-1.52 2.16-2.78 2.72-3.3-.62-6.63-.26-9.94-.24a3.11 3.11 0 0 1-3.48-2.39C13 38 8.73 25.2 4.06 12.59 2.74 9 1.61 5.42.24 1.89 0 1.26-.23.73.45.31s.87.23 1.27.53c7.36 5.44 14.75 10.82 22.09 16.28 6.86 5.1 13.66 10.27 20.5 15.4 2.16 1.62 4.37 3.18 6.56 4.77z" fill="#00B0FF"></path></svg>