<?xml version="1.0" standalone="no"?>
<!DOCTYPE svg PUBLIC "-//W3C//DTD SVG 20010904//EN"
 "http://www.w3.org/TR/2001/REC-SVG-20010904/DTD/svg10.dtd">
<svg version="1.0" xmlns="http://www.w3.org/2000/svg"
 width="1000.000000pt" height="1000.000000pt" viewBox="0 0 1000.000000 1000.000000"
 preserveAspectRatio="xMidYMid meet">
<metadata>
Created by potrace 1.14, written by Peter Selinger 2001-2017
</metadata>
<g transform="translate(0.000000,1000.000000) scale(0.100000,-0.100000)"
fill="#000000" stroke="none">
<path d="M9514 9956 c-125 -94 -260 -195 -292 -218 -18 -13 -39 -28 -45 -33
-7 -6 -22 -17 -34 -25 -46 -32 -228 -165 -233 -170 -3 -3 -30 -23 -60 -45 -30
-22 -116 -84 -190 -139 -74 -54 -171 -125 -215 -157 -44 -33 -84 -63 -90 -67
-5 -4 -26 -19 -45 -32 -19 -14 -40 -29 -46 -35 -18 -15 -54 -42 -204 -154 -74
-55 -139 -104 -145 -108 -5 -5 -26 -20 -45 -33 -19 -13 -40 -29 -46 -35 -6 -5
-22 -18 -35 -27 -71 -52 -175 -128 -184 -136 -14 -11 -122 -93 -156 -118 -16
-11 -43 -31 -60 -45 -18 -13 -57 -43 -88 -66 -31 -23 -65 -49 -76 -58 -11 -8
-126 -94 -255 -191 -129 -97 -241 -183 -247 -192 -7 -9 -13 -13 -13 -9 0 6
-284 -205 -300 -223 -3 -3 -23 -18 -46 -33 -22 -15 -49 -35 -60 -45 -10 -10
-35 -29 -54 -42 -19 -13 -41 -29 -47 -35 -24 -20 -59 -46 -128 -96 -38 -28
-81 -59 -95 -70 -14 -11 -81 -61 -150 -111 -69 -51 -126 -96 -128 -100 -2 -4
-10 -8 -17 -8 -7 0 -15 -3 -17 -7 -1 -5 -48 -41 -103 -82 -55 -41 -102 -77
-105 -81 -11 -14 -254 -192 -269 -197 -9 -4 -23 -12 -31 -18 -26 -22 -154 -85
-172 -85 -9 0 -20 -4 -23 -10 -8 -13 -42 -13 -58 0 -48 41 -147 107 -151 102
-3 -3 -6 -1 -6 5 0 10 -63 56 -85 63 -5 2 -14 9 -20 15 -5 7 -46 39 -90 71
-44 31 -111 80 -149 108 -38 28 -73 50 -78 49 -4 -2 -8 1 -8 6 0 8 -112 98
-117 93 -2 -1 -11 6 -21 16 -38 35 -60 50 -66 45 -3 -4 -6 -1 -6 5 0 6 -21 26
-47 43 -27 18 -50 35 -53 39 -3 3 -50 39 -105 80 -55 41 -108 83 -119 92 -10
10 -24 15 -29 11 -6 -3 -7 -1 -4 4 5 8 -14 24 -30 24 -1 0 -18 16 -39 35 -20
19 -39 32 -42 30 -3 -3 -11 3 -19 14 -8 11 -18 20 -23 20 -5 0 -25 16 -46 35
-20 19 -43 35 -50 35 -8 0 -14 4 -14 9 0 4 -17 20 -37 33 -21 14 -51 37 -68
52 -16 14 -33 26 -37 26 -5 0 -16 8 -26 18 -10 9 -30 26 -46 37 -15 11 -71 53
-124 93 -53 40 -108 81 -121 90 -73 53 -157 118 -163 127 -4 5 -8 7 -8 3 0 -4
-12 4 -26 17 -15 14 -30 22 -35 19 -5 -3 -9 2 -9 10 0 9 -7 16 -15 16 -8 0
-15 4 -15 8 0 4 -13 16 -30 25 -16 10 -35 23 -42 30 -7 7 -31 25 -53 41 -22
17 -43 35 -47 40 -5 7 -8 7 -8 1 0 -6 -3 -6 -8 0 -9 14 -115 95 -227 175 -49
36 -94 68 -100 73 -5 4 -44 33 -85 63 -41 31 -85 64 -97 75 -13 10 -23 17 -23
14 0 -3 -11 5 -24 16 -13 12 -27 21 -30 20 -3 0 -16 9 -30 22 -13 12 -30 27
-38 32 -7 6 -31 23 -53 40 -22 16 -41 33 -43 37 -2 4 -8 8 -13 8 -6 0 -46 27
-90 60 -43 34 -79 59 -79 56 0 -3 -11 5 -23 17 -35 32 -90 72 -95 69 -2 -2 -9
3 -15 11 -7 8 -39 34 -72 58 -33 24 -64 47 -70 51 -44 36 -188 138 -195 138
-4 0 -10 4 -12 8 -1 5 -77 63 -168 130 -91 67 -169 125 -175 129 -5 5 -26 20
-45 33 -19 13 -41 30 -48 37 -6 6 -21 15 -32 18 -11 3 -20 10 -20 14 0 4 -21
23 -48 41 -99 70 -188 139 -205 160 -15 18 -25 21 -50 16 -71 -14 -78 -65 -27
-191 5 -11 16 -42 26 -70 10 -27 20 -52 23 -55 4 -3 7 -12 8 -20 1 -8 11 -40
22 -70 38 -106 123 -345 131 -370 4 -14 29 -83 55 -155 25 -71 53 -150 62
-175 8 -25 20 -56 26 -70 5 -14 11 -30 12 -36 2 -6 28 -81 60 -165 31 -85 57
-158 59 -164 1 -10 21 -63 36 -100 8 -18 33 -89 141 -392 58 -164 88 -250 122
-348 20 -55 70 -197 112 -315 41 -118 77 -222 79 -230 2 -8 8 -28 14 -43 7
-15 15 -40 18 -55 4 -15 12 -36 17 -47 6 -11 12 -24 13 -30 3 -17 127 -381
141 -415 3 -8 8 -21 10 -27 1 -7 5 -19 6 -25 2 -7 7 -20 10 -28 6 -14 109
-314 252 -732 35 -103 67 -193 72 -200 4 -7 8 -17 8 -23 1 -26 38 -114 55
-133 11 -12 20 -25 20 -29 0 -14 94 -71 137 -82 28 -8 117 -10 275 -5 347 8
549 5 653 -12 17 -3 43 -6 59 -8 25 -3 32 -11 49 -52 43 -111 321 -856 402
-1079 47 -132 97 -269 110 -305 19 -53 67 -189 115 -330 4 -14 11 -34 16 -45
4 -11 8 -24 10 -30 3 -13 93 -275 101 -295 3 -8 7 -19 9 -25 1 -5 30 -89 64
-185 34 -96 75 -213 90 -260 16 -47 49 -143 74 -215 24 -71 88 -256 141 -410
53 -154 98 -284 99 -290 3 -10 8 -23 29 -80 6 -16 12 -36 13 -42 2 -11 13 -43
42 -123 3 -8 6 -19 8 -25 1 -5 48 -143 104 -305 56 -162 112 -326 125 -365 12
-38 30 -88 38 -110 35 -89 177 -494 177 -503 0 -6 15 -27 34 -46 52 -56 119
-46 153 24 13 25 41 142 41 170 0 8 15 74 34 145 32 118 110 336 294 820 36
94 67 178 69 187 2 10 10 32 18 50 8 18 31 80 52 138 20 58 40 114 45 125 5
11 21 54 36 95 36 104 164 457 199 550 16 43 69 193 71 200 0 3 6 19 13 35 7
17 14 35 15 40 1 6 5 16 9 23 5 6 6 12 3 12 -3 0 3 20 14 45 11 25 17 45 13
45 -3 0 -1 6 4 13 8 9 40 94 48 127 1 3 5 12 8 20 4 8 20 56 37 105 17 50 35
99 40 110 4 11 20 56 34 100 15 44 31 89 36 100 5 11 41 112 80 225 39 113 82
234 96 270 13 36 24 71 24 78 0 7 4 20 10 30 5 9 32 85 60 167 81 236 82 239
91 260 4 11 17 47 28 80 11 33 54 159 97 280 42 121 85 246 95 277 34 106 63
144 131 173 32 13 105 15 501 15 626 0 586 -16 673 275 19 66 37 127 39 135 2
8 11 32 19 52 9 21 16 40 16 43 1 7 3 14 96 260 47 127 92 248 99 270 8 22 25
72 40 110 14 39 35 95 45 125 10 30 39 114 63 185 25 72 86 247 135 390 49
143 108 310 130 370 22 61 59 164 82 230 78 219 124 350 143 400 6 17 12 35
13 40 1 6 15 46 32 90 38 99 128 345 148 405 9 25 20 54 25 65 8 18 96 257
103 280 3 11 11 32 29 80 7 17 12 32 13 35 0 3 4 12 7 20 8 19 59 160 97 265
15 44 44 125 65 180 20 55 48 132 62 170 13 39 41 104 60 145 47 101 48 144 3
182 -48 39 -77 36 -146 -16z"/>
</g>
</svg>
